<svg width="20" height="20" viewBox="0 0 24 24" fill="currentColor" xmlns="http://www.w3.org/2000/svg">
  <path d="M11.257.004c-.37.01-.735.04-1.1.095-.54.054-1.08.325-1.675.595-.757.324-1.515.649-2.218.703-1.19.378-1.568.919-1.892 1.351 0 .054-.054.108-.054.108-.433.865-.487 1.73-.325 2.595.162.541.378 1.029.54 1.515.38 1.028.758 2 .92 3.136.163.325.324.757.432 1.19.27.865.542 1.838 1.353 2.595l.006-.003c.017.019.03.04.048.057l.021-.01-.02-.584c.648-.974 1.566-1.623 2.864-1.893.52-.11 1.081-.15 1.663-.128a8.773 8.773 0 0 1 1.798.236c1.46.378 2.595 1.136 2.65 1.785.027.354.04.695.032 1.036 0 .064-.004.128-.007.193l.136.068a.639.639 0 0 0 .206-.19l.003-.003.006-.008c.04-.054.075-.124.11-.194.02-.037.038-.086.056-.129.205-.462.362-1.153.538-1.963.054-.27.11-.487.163-.703.433-.973 1.027-1.838 1.622-2.65.973-1.35 1.892-2.595 1.784-4.055-1.784-3.461-4.272-4.002-5.57-4.272-.216-.054-.323-.054-.485-.108-1.338-.244-2.494-.396-3.605-.365z"/>
</svg>