<svg width="20" height="20" viewBox="0 0 1024 1024" fill="currentColor" xmlns="http://www.w3.org/2000/svg">
  <path d="M502.922 790.669c-152.755-1.391-276.788-125.42-278.177-278.177-0.661-72.618 29.297-142.754 79.451-194.66 52.395-54.221 124.439-82.84 198.726-83.516 71.011-0.646 71.074-110.824 0-110.177-212.832 1.937-386.417 175.518-388.354 388.353-1.937 212.854 178.438 386.443 388.354 388.354 71.073 0.644 71.011-109.531 0-110.177z"/>
  <path d="M521.098 234.316c152.756 1.39 276.79 125.42 278.18 278.176 0.662 72.62-29.297 142.755-79.453 194.658-52.394 54.224-124.439 82.843-198.727 83.519-71.012 0.646-71.074 110.821 0 110.177 212.834-1.937 386.42-175.52 388.357-388.354 1.936-212.856-178.442-386.441-388.357-388.353-71.074-0.647-71.012 109.532 0 110.177z"/>
</svg>